<svg enable-background="new 0 0 512 512" height="512" viewBox="0 0 512 512" width="512" xmlns="http://www.w3.org/2000/svg"><path clip-rule="evenodd" d="m466.578 384.362c-151.86 14.073-308.325 46.509-466.078 56.743 23.97-24.544 73.148-21.383 117.537-28.369 77.959-12.276 175.958-20.577 263.429-32.429 28.223-3.817 65.035-19.078 85.112 4.055zm-149.956 56.743c-50.842 5.771-93.858 8.653-137.792 12.159-29.813 2.375-62.249-3.709-81.062 16.21 62.199 16.93 137.901-10.704 202.645-8.109 8.891-7.352 107.751 8.684 149.956-28.369-34.599-21.94-84.273 2.491-133.747 8.109zm-243.414-105.551c-39.556-49.037 20.198-130.643 52.688-170.215 14.438-17.591 28.922-36.154 44.579-52.688 34.295-36.229 39.352-48.505 85.108-68.898 68.99-30.748 96.718 51.133 52.684 93.209-16.896 4.316-17.873 1.056-36.47 0 16.658-16.451 12.916-48.688 20.26-64.839-.449-7.66-13.395-2.812-12.155-12.16-65.879 26.793-108.379 75.552-145.897 133.746-15.806 24.506-33.16 48.854-36.479 89.158.449 7.652 13.395 2.812 12.16 12.16 4.483.124 8.741.024 12.833-.25v-.087h1.477c65.671-5.095 82.039-59.504 119.428-92.88-25.517-11.469-51.911 24.161-76.999 4.055 21.171-40.125 80.991-26.702 133.738-40.524 4.191 13.224 10.271 8.587 0 20.26 55.054-39.864 86.131-159.263 202.644-137.797 34.711 91.205-42.075 178.292-97.268 226.955-39.793 35.089-59.712 61.513-117.532 48.638-18.575-18.231-16.354-49.728-16.209-52.688.91-18.733 13.153-42.15 12.155-60.789-8.941 31.621-61.01 41.61-60.79 68.898-41.11 27.785-75.164 62.624-149.955 56.736zm226.955-56.739c52.43 16.547 86.093-42.882 125.637-64.848 23.104-34.832 66.308-84.143 48.634-133.746-78.417 16.46-150.66 101.128-174.271 198.594z" fill-rule="evenodd"/></svg>