<svg height="32" viewBox="0 0 32 32" width="32" xmlns="http://www.w3.org/2000/svg"><path d="m13.604 19.136.011.009-1.333 3.219c-1.276-.817-2.251-2.036-2.765-3.463l3.437-.584.005.005c.457-.083.828.38.645.813zm-1.109-2.839c.453-.125.584-.704.229-1.011l.005-.016-2.615-2.339c-.797 1.297-1.141 2.828-.975 4.339l3.349-.964zm1.526-2.641c.38.276.911.016.932-.453l.016-.005.197-3.495c-1.516.177-2.927.855-4.016 1.928l2.865 2.025zm1.015 3.667.964.464.964-.464.239-1.036-.667-.833h-1.072l-.667.833zm2-4.13c.016.468.552.728.933.447l.009.005 2.844-2.015c-1.083-1.063-2.484-1.74-3.989-1.923l.197 3.485zm14.5 7.963-7.697 9.573c-.407.5-1.016.792-1.661.792l-12.349.005c-.645 0-1.26-.292-1.667-.797l-7.697-9.573c-.401-.5-.552-1.156-.412-1.787l2.751-11.937c.14-.629.561-1.151 1.151-1.432l11.12-5.317c.583-.276 1.265-.276 1.848 0l11.125 5.312c.584.281 1.005.808 1.151 1.432l2.751 11.943c.14.625-.011 1.281-.412 1.787zm-4.385-2.744c-.057-.011-.135-.037-.192-.048-.235-.041-.423-.031-.641-.047-.463-.052-.848-.088-1.192-.197-.141-.052-.24-.219-.287-.292l-.271-.079c.145-1.036.099-2.088-.141-3.109-.233-1.025-.656-2.004-1.244-2.88.068-.063.197-.176.233-.213.011-.12 0-.244.125-.375.265-.251.595-.453.989-.699.193-.109.365-.181.557-.323.043-.031.1-.083.147-.12.317-.249.391-.692.161-.979s-.672-.312-.989-.063c-.047.037-.109.084-.152.12-.176.156-.285.307-.437.469-.328.333-.604.609-.9.807-.125.079-.319.052-.401.047l-.256.183c-1.457-1.532-3.421-2.484-5.525-2.672l-.016-.297c-.088-.083-.192-.156-.219-.333-.031-.359.021-.744.079-1.208.025-.219.077-.396.088-.635 0-.053 0-.131 0-.188 0-.407-.303-.74-.667-.74-.369 0-.667.333-.667.74v.021.167c.011.239.063.416.088.635.057.464.105.849.079 1.208-.041.131-.115.251-.219.344l-.016.281c-2.12.172-4.099 1.12-5.552 2.672-.083-.057-.161-.115-.24-.172-.119.016-.239.052-.395-.036-.297-.204-.573-.48-.901-.813-.151-.161-.26-.312-.437-.463-.043-.037-.104-.084-.147-.12-.135-.104-.296-.167-.463-.177-.209-.011-.401.079-.532.235-.229.292-.156.729.161.984l.011.005.141.109c.187.141.359.213.552.323.396.251.724.453.989.699.099.109.12.301.131.385l.213.187c-1.177 1.772-1.661 3.907-1.36 6.011l-.276.079c-.073.099-.177.244-.287.292-.344.109-.729.145-1.192.192-.219.021-.407.011-.641.052-.052.011-.12.032-.177.041l-.004.005h-.011c-.391.095-.647.459-.563.813.077.353.463.572.859.484h.011l.011-.005.172-.036c.229-.063.396-.152.599-.229.437-.156.808-.292 1.161-.344.147-.011.308.093.38.136l.292-.048c.651 2.011 2.016 3.72 3.839 4.792l-.12.292c.047.115.095.265.057.375-.125.339-.349.693-.599 1.084-.125.181-.251.323-.36.531-.025.052-.057.131-.083.183-.172.364-.047.787.281.948.333.156.744-.011.921-.38.027-.052.063-.12.084-.172.093-.213.125-.401.192-.609.172-.443.271-.907.516-1.199.068-.077.172-.109.287-.135l.151-.276c1.975.76 4.161.765 6.145.015l.141.256c.115.036.24.057.339.208.183.307.307.677.459 1.12.067.208.099.396.192.609.021.047.057.12.084.172.176.369.588.536.916.375.333-.156.459-.579.287-.948-.027-.052-.063-.125-.088-.177-.109-.208-.235-.348-.355-.531-.255-.391-.464-.719-.593-1.057-.052-.172.009-.276.052-.391-.027-.031-.079-.193-.109-.271 1.828-1.084 3.192-2.803 3.839-4.828.083.015.233.041.285.052.1-.068.188-.152.371-.141.353.052.724.188 1.161.344.203.079.369.167.599.229.047.016.115.027.172.036l.011.005h.011c.396.089.781-.129.859-.484.084-.355-.172-.719-.563-.812zm-5.287-5.48-2.599 2.328v.011c-.353.308-.219.885.229 1.011l.005.011 3.369.968c.073-.744.027-1.5-.145-2.229-.167-.739-.459-1.452-.86-2.099zm-5.348 7.104c-.104-.197-.313-.317-.537-.312-.208.011-.4.125-.5.312l-1.692 3.057c1.437.491 3 .491 4.437 0l-1.693-3.057zm2.515-1.724c-.119-.025-.244-.005-.359.048-.281.135-.412.473-.287.76v.005l1.344 3.249c1.287-.817 2.265-2.047 2.776-3.484l-3.469-.588z"/></svg>