<svg height="32" viewBox="0 0 32 32" width="32" xmlns="http://www.w3.org/2000/svg"><path d="m16.24.005c-4.328-.068-8.495 1.625-11.552 4.683-6.245 6.249-6.245 16.38 0 22.629 6.249 6.245 16.38 6.245 22.624 0 6.251-6.249 6.251-16.38 0-22.629-2.937-2.943-6.911-4.62-11.072-4.683zm-5.88 7.99c.749.167 1.4.287 2.219.287 1.228 0 2.484-.287 3.713-.287 2.385 0 4.599 1.084 4.599 3.735 0 2.052-1.229 3.353-3.131 3.907l3.713 5.473h1.735v1.349h-2.645l-4.391-6.584h-2.344v5.235h2.292v1.349h-5.76v-1.349h1.979v-11.599l-1.979-.245v-1.276zm5.952 1.349c-.791 0-1.615.068-2.484.167v5.068l1.255.025c3.063.041 4.245-1.135 4.245-2.703 0-1.833-1.328-2.557-3.016-2.557z"/></svg>